<svg width="31" height="24" viewBox="0 0 31 24" fill="none" xmlns="http://www.w3.org/2000/svg">
<path d="M13.0756 23.9766L10.216 23.1469C9.91598 23.0625 9.74722 22.7484 9.8316 22.4484L16.2305 0.406101C16.3149 0.106078 16.629 -0.0626848 16.929 0.0216966L19.7886 0.851447C20.0886 0.935828 20.2574 1.24991 20.173 1.54994L13.7741 23.5922C13.685 23.8922 13.3756 24.0657 13.0756 23.9766ZM7.73144 18.7169L9.77066 16.5417C9.9863 16.312 9.97223 15.9463 9.73315 15.7354L5.48596 11.9992L9.73315 8.26294C9.97223 8.05199 9.99098 7.68634 9.77066 7.45663L7.73144 5.28147C7.52049 5.05645 7.16421 5.04239 6.93451 5.25803L0.17931 11.5866C-0.0597701 11.807 -0.0597701 12.1867 0.17931 12.407L6.93451 18.7403C7.16421 18.9559 7.52049 18.9466 7.73144 18.7169ZM23.0701 18.745L29.8253 12.4117C30.0644 12.1914 30.0644 11.8116 29.8253 11.5913L23.0701 5.25334C22.8451 5.04239 22.4888 5.05176 22.2732 5.27678L20.2339 7.45194C20.0183 7.68165 20.0324 8.0473 20.2714 8.25825L24.5186 11.9992L20.2714 15.7354C20.0324 15.9463 20.0136 16.312 20.2339 16.5417L22.2732 18.7169C22.4841 18.9466 22.8404 18.9559 23.0701 18.745Z" fill="#EB5757"/>
</svg>
